<svg width="923" height="385" viewBox="0 0 923 385" fill="none" xmlns="http://www.w3.org/2000/svg">
<path d="M70.7717 0L0 385H923V0H70.7717Z" fill="white"/>
<path d="M918.015 133.03H738.753C734.912 131.749 728.68 131.152 724.412 131.493C717.668 132.091 712.376 133.456 706.657 135.078C704.096 135.761 701.62 136.871 699.23 137.981C692.06 141.481 682.499 147.541 674.987 153.175C672.768 154.882 671.914 156.675 672.597 159.151C673.877 163.846 676.268 168.199 678.06 171.016C678.999 172.467 680.45 173.065 682.414 173.577C682.755 173.662 683.353 173.748 684.036 173.833C685.401 178.784 687.962 184.162 690.438 185.869C691.035 184.076 690.694 183.65 690.352 182.711C689.669 180.577 689.669 180.577 689.499 178.955C692.401 180.662 696.499 181.601 702.047 182.028C705.291 182.284 705.035 181.089 701.62 180.491C696.669 179.552 693.852 177.76 691.804 174.43C694.364 174.601 694.364 174.516 694.45 174.089C694.45 172.553 690.779 171.614 687.279 171.016C684.377 170.504 682.158 168.882 681.219 167.175C680.28 165.467 679.341 164.102 678.487 160.346C677.889 158.553 677.975 156.59 679.938 155.139C688.304 149.163 693.255 145.749 699.742 142.761C701.876 141.822 704.267 140.968 706.827 140.371C712.291 139.09 719.29 137.639 725.01 137.383C740.29 136.786 750.192 147.029 753.094 160.772C754.033 165.382 754.118 171.272 756.423 175.711C760.691 185.528 765.386 187.064 774.605 192.954C784.337 199.1 800.556 211.734 809.775 229.148C818.396 245.538 825.396 275.073 811.823 295.902C805.507 305.548 800.3 307.596 800.385 310.242C800.726 314.767 813.701 315.791 821.384 315.193C844.517 313.316 857.663 302.304 880.882 299.401C895.137 297.609 907.771 301.706 910.759 315.876C912.807 325.864 902.479 333.376 888.65 333.29C875.163 333.29 867.053 332.181 861.163 330.815C854.932 329.364 852.2 328.169 845.627 326.291C841.615 325.096 833.335 323.388 827.445 323.73C821.469 324.071 816.945 325.266 807.982 325.864C783.91 327.571 770.423 315.791 745.411 318.693C737.302 319.632 731.753 322.791 727.741 328.595C733.546 325.01 738.155 323.986 747.631 324.413C775.715 325.778 783.654 338.156 811.823 331.242C818.909 329.534 826.25 328.083 830.603 328.169C838.883 328.339 845.286 331.156 854.334 333.973C864.065 336.961 873.199 338.241 889.333 338.156C908.198 337.985 918.1 329.022 918.1 311.95C918.015 311.694 918.015 133.03 918.015 133.03Z" fill="#D1111C"/>
<path d="M704.181 147.371C702.389 147.968 701.023 149.675 701.62 151.212C702.815 154.114 707.681 152.663 709.388 150.444C711.096 148.139 711.949 147.456 711.949 147.456C711.949 147.456 709.218 145.578 704.181 147.371Z" fill="#D1111C"/>
<path d="M736.448 149.505C736.192 146.773 732.692 144.724 727.229 145.236C725.18 145.407 725.351 146.602 726.546 147.371C727.741 147.968 729.192 148.48 729.192 149.334C729.192 150.358 728.766 151.041 727.4 151.724C725.522 152.663 724.327 152.151 724.327 152.151C724.327 152.151 725.18 154.114 728.68 154.114C732.778 154.2 736.704 151.639 736.448 149.505Z" fill="#D1111C"/>
<path d="M442.032 200.125H396.449L372.718 234.611L373.401 214.892V160.516H334.561H332C332 160.516 333.622 162.224 333.622 167.516V303.926H373.742C373.742 303.926 373.572 289.243 373.572 282.414C373.572 277.036 381.084 268.756 381.084 268.756L400.461 303.926H444.252L406.351 242.721L442.032 200.125Z" fill="#005DA1"/>
<path d="M636.403 200.125L625.904 241.867L622.489 257.744L618.733 241.611L605.758 200.125H571.272L558.126 241.867L554.114 258.086L550.614 241.696L539.261 200.125H510.152V229.575L535.163 303.84H569.82L585.271 254.33L587.064 246.562L588.856 254.415L604.819 303.84H638.537L673.451 200.125H636.403Z" fill="#005DA1"/>
<path d="M766.154 295.475V239.647C766.154 225.733 762.057 212.929 754.631 207.039C750.704 203.881 745.411 201.576 739.265 200.21C733.29 198.844 726.802 198.247 720.059 198.247C706.145 198.247 694.791 199.868 690.865 200.551L682.926 224.026C686.255 223.599 697.694 222.319 706.827 222.319C714.595 222.319 719.29 223.087 723.388 226.16C727.485 229.233 726.546 238.452 726.546 238.452C719.29 238.538 712.632 238.879 706.827 239.477C702.986 239.904 699.059 240.501 695.303 241.355C691.462 242.208 687.194 243.574 682.499 245.367C677.548 247.33 673.195 250.574 669.609 255.098C665.939 259.708 663.975 265.171 663.975 271.402C663.975 281.134 667.39 289.158 674.048 295.475C680.877 301.706 689.926 304.865 700.937 304.865C711.608 304.865 720.827 302.304 728.51 297.267C729.107 300.084 730.388 301.706 732.436 302.987C734.058 303.926 736.79 303.926 741.399 303.926H767.691C767.862 303.84 766.154 302.218 766.154 295.475ZM726.375 277.89C726.375 278.061 725.607 278.317 725.18 278.402C721.595 279.597 717.327 279.597 715.534 279.597C713.742 279.597 709.986 279.17 707.681 277.634C706.571 276.866 705.803 275.927 705.206 274.646C704.608 273.28 704.267 271.829 704.267 270.037C704.267 265.342 706.315 262.354 711.01 260.476C715.108 258.854 719.717 258.257 726.29 258.086V277.89H726.375Z" fill="#005DA1"/>
<path d="M452.788 213.953V280.878V303.84H469.861H494.701V200.125H464.654L452.788 213.953Z" fill="#005DA1"/>
<path d="M475.751 159.833C464.483 159.833 455.434 167.687 455.434 177.333C455.434 186.979 464.568 194.832 475.751 194.832C487.019 194.832 496.067 186.979 496.067 177.333C496.067 167.687 487.019 159.833 475.751 159.833Z" fill="#005DA1"/>
<path d="M332.256 57.9105H349.499L359.914 93.8481L371.267 57.9105H388.083V107.25H377.584V64.9102L364.096 107.25H355.389L342.158 64.9102V107.25H332.256V57.9105Z" fill="#005DA1"/>
<path d="M405.924 92.5677C405.924 94.7871 405.924 101.787 412.924 101.787C415.485 101.787 417.96 100.848 418.899 97.0066H428.118C427.948 98.6284 427.606 101.616 424.875 104.518C422.314 107.165 417.875 108.531 412.753 108.531C409.851 108.531 404.217 108.018 400.632 104.262C397.473 101.019 396.193 96.3237 396.193 90.7751C396.193 85.1411 397.559 78.4829 403.363 74.4708C406.009 72.6782 409.339 71.5685 413.095 71.5685C418.046 71.5685 423.85 73.4465 427.009 79.934C429.313 84.629 429.228 89.6654 429.057 92.5677H405.924V92.5677ZM418.814 86.2509C418.814 84.7143 418.643 78.5682 412.838 78.5682C408.4 78.5682 406.522 82.2388 406.351 86.2509H418.814Z" fill="#005DA1"/>
<path d="M436.74 79.2511C436.74 77.0317 436.569 74.983 436.398 72.7636H446.13L446.471 77.2024C447.581 75.6659 450.227 71.9953 457.142 71.9953C465.08 71.9953 467.3 76.861 467.983 78.4829C470.885 72.9343 475.495 72.0807 479.08 72.0807C486.08 72.0807 488.811 76.2634 489.579 77.6292C491.457 80.6169 491.287 84.7997 491.287 87.7874V107.25H481.129V87.0191C481.129 83.3485 480.616 79.2511 475.324 79.2511C469.263 79.2511 469.092 84.8851 469.092 90.0068V107.25H458.934V86.763C458.934 84.1168 458.849 79.1658 453.3 79.1658C446.983 79.1658 446.983 84.629 446.983 86.9338V107.25H436.825V79.2511H436.74Z" fill="#005DA1"/>
<path d="M501.445 57.9958H511.518V76.9463C514.932 72.4221 519.542 72.3367 521.249 72.3367C529.615 72.3367 536.273 78.995 536.273 90.6044C536.273 103.494 528.761 108.018 521.847 108.018C520.054 108.018 514.591 107.848 511.432 102.47C511.347 103.579 511.262 105.201 511.091 107.335H501.445V57.9958ZM518.517 79.0804C511.091 79.0804 511.091 87.5313 511.091 89.7507C511.091 97.6041 514.42 101.36 519.03 101.36C526.029 101.36 526.029 92.6531 526.029 90.9458C526.029 88.1288 525.859 79.0804 518.517 79.0804Z" fill="#005DA1"/>
<path d="M552.321 92.5677C552.321 94.7871 552.321 101.787 559.321 101.787C561.882 101.787 564.357 100.848 565.296 97.0066H574.515C574.345 98.6284 574.003 101.616 571.272 104.518C568.711 107.165 564.272 108.531 559.15 108.531C556.248 108.531 550.614 108.018 547.029 104.262C543.87 101.019 542.59 96.3237 542.59 90.7751C542.59 85.1411 543.955 78.4829 549.76 74.4708C552.406 72.6782 555.736 71.5685 559.491 71.5685C564.443 71.5685 570.247 73.4465 573.406 79.934C575.71 84.629 575.625 89.6654 575.454 92.5677H552.321V92.5677ZM565.211 86.2509C565.211 84.7143 565.04 78.5682 559.235 78.5682C554.797 78.5682 552.919 82.2388 552.748 86.2509H565.211Z" fill="#005DA1"/>
<path d="M582.966 81.2144C582.966 79.5926 582.71 74.5562 582.454 72.5928H591.929L592.1 79.2511C593.38 76.3488 595.685 72.166 603.88 72.5928V81.6413C593.637 80.7023 593.039 85.9094 593.039 90.2629V107.25H582.966V81.2144Z" fill="#005DA1"/>
<path d="M643.147 71.9953C655.61 71.9953 661.073 80.4462 661.073 90.0922C661.073 99.8235 655.439 108.531 642.976 108.531C633.159 108.531 625.391 102.47 625.391 90.3483C625.306 81.9827 629.574 71.9953 643.147 71.9953ZM643.318 101.445C647.756 101.445 650.744 98.7992 650.744 89.6654C650.744 85.0558 649.891 78.739 643.147 78.739C635.806 78.739 635.72 87.2752 635.72 90.4336C635.72 98.1163 638.281 101.445 643.318 101.445Z" fill="#005DA1"/>
<path d="M670.036 79.934H664.914V72.7636H670.036V68.0686C670.036 62.0079 672.085 57.0568 681.902 57.0568C682.584 57.0568 684.462 57.0568 687.365 57.3983V64.398C686.34 64.2273 686.084 64.2273 685.231 64.2273C680.024 64.2273 680.024 66.9589 680.024 68.7515V72.7636H686.426V79.934H680.024V107.25H669.951V79.934H670.036Z" fill="#005DA1"/>
<path d="M749.765 73.0196C749.679 71.7392 749.594 69.9466 748.399 68.0686C746.35 64.8248 742.424 64.2273 740.119 64.2273C728.083 64.2273 725.693 75.4098 725.693 83.0071C725.693 86.3362 726.205 92.397 729.79 96.2383C732.265 98.9699 735.509 100.506 741.399 100.506C746.521 100.506 748.314 99.9089 749.423 99.5674V89.1532H739.863V80.9584H760.008V105.628C756.935 106.653 751.899 108.36 741.997 108.36C730.729 108.36 724.924 105.628 720.998 101.787C715.449 96.409 714.425 88.5556 714.425 83.3485C714.425 65.8492 725.351 56.5446 740.29 56.5446C746.606 56.5446 753.179 58.3373 757.106 62.7761C760.35 66.5321 760.606 70.4588 760.691 73.105H749.765V73.0196Z" fill="#005DA1"/>
<path d="M770.167 81.2144C770.167 79.5926 769.91 74.5562 769.654 72.5928H779.13L779.3 79.2511C780.581 76.3488 782.886 72.166 791.08 72.5928V81.6413C780.837 80.7023 780.239 85.9094 780.239 90.2629V107.25H770.167V81.2144Z" fill="#005DA1"/>
<path d="M812.08 71.9953C824.543 71.9953 830.006 80.4462 830.006 90.0922C830.006 99.8235 824.372 108.531 811.909 108.531C802.092 108.531 794.324 102.47 794.324 90.3483C794.239 81.9827 798.507 71.9953 812.08 71.9953ZM812.165 101.445C816.604 101.445 819.592 98.7992 819.592 89.6654C819.592 85.0558 818.738 78.739 811.994 78.739C804.653 78.739 804.568 87.2752 804.568 90.4336C804.653 98.1163 807.214 101.445 812.165 101.445Z" fill="#005DA1"/>
<path d="M848.188 72.7635V93.3359C848.188 96.3236 848.188 100.933 853.566 100.933C860.053 100.933 860.053 96.0676 860.053 90.1775V72.7635H870.468V95.47C870.638 102.897 870.638 103.836 870.638 104.689C870.724 105.628 870.809 106.226 870.894 107.25H861.078L860.736 102.64C859.712 104.177 857.151 108.104 850.578 108.104C845.969 108.104 842.127 105.97 840.164 103.494C837.944 100.677 837.944 95.8968 837.944 94.1896V72.7635H848.188Z" fill="#005DA1"/>
<path d="M890.272 72.7636L890.528 77.7146C893.686 72.166 899.405 72.0807 901.027 72.0807C909.99 72.0807 915.368 78.7389 915.368 89.3239C915.368 99.0553 910.332 107.762 900.344 107.762C894.113 107.762 891.638 104.518 890.699 103.323V120.567H880.37V72.7636H890.272ZM905.125 89.7507C905.125 85.6533 904.1 78.6536 898.125 78.6536C894.881 78.6536 890.186 81.1291 890.186 90.4336C890.186 92.4823 890.272 101.189 897.698 101.189C902.564 101.104 905.125 96.5797 905.125 89.7507Z" fill="#005DA1"/>
</svg>
